<svg width="24" height="24" viewBox="0 0 24 24" fill="none" xmlns="http://www.w3.org/2000/svg">
<path d="M12 20.1399C10.3804 20.1399 8.79734 19.6591 7.4513 18.7585C6.10525 17.8579 5.05684 16.578 4.4389 15.081C3.82097 13.5839 3.66133 11.9372 3.98022 10.3493C4.2991 8.76146 5.08215 7.304 6.23015 6.16162C7.37815 5.01923 8.83942 4.24334 10.4288 3.93224C12.0182 3.62115 13.6642 3.78885 15.1582 4.41412C16.6521 5.03938 17.9269 6.09405 18.8209 7.4445C19.7149 8.79495 20.1879 10.3804 20.18 11.9999C20.1668 14.1616 19.2995 16.2305 17.7671 17.7553C16.2348 19.2801 14.1617 20.1373 12 20.1399ZM12 5.28991C10.6801 5.28992 9.38978 5.68095 8.29192 6.41364C7.19406 7.14633 6.33786 8.18784 5.8314 9.4067C5.32493 10.6256 5.19091 11.9672 5.44623 13.2621C5.70156 14.5571 6.3348 15.7474 7.26601 16.6828C8.19723 17.6182 9.38468 18.2568 10.6785 18.5179C11.9723 18.779 13.3145 18.651 14.5356 18.15C15.7567 17.649 16.8021 16.7975 17.5397 15.7029C18.2773 14.6083 18.6741 13.3198 18.68 11.9999C18.6839 11.1202 18.5141 10.2483 18.1801 9.43437C17.8462 8.62045 17.3548 7.88051 16.7341 7.25703C16.1134 6.63356 15.3757 6.13883 14.5633 5.80125C13.7508 5.46367 12.8797 5.2899 12 5.28991Z" fill="black"/>
<path d="M12 7.09997C11.8011 7.09997 11.6103 7.02095 11.4697 6.8803C11.329 6.73965 11.25 6.54888 11.25 6.34997V2.71997C11.25 2.52106 11.329 2.33029 11.4697 2.18964C11.6103 2.04899 11.8011 1.96997 12 1.96997C12.1989 1.96997 12.3897 2.04899 12.5303 2.18964C12.671 2.33029 12.75 2.52106 12.75 2.71997V6.34997C12.75 6.54888 12.671 6.73965 12.5303 6.8803C12.3897 7.02095 12.1989 7.09997 12 7.09997Z" fill="black"/>
<path d="M12 21.9999C11.8011 21.9999 11.6103 21.9209 11.4697 21.7803C11.329 21.6396 11.25 21.4489 11.25 21.2499V17.5699C11.25 17.371 11.329 17.1803 11.4697 17.0396C11.6103 16.899 11.8011 16.8199 12 16.8199C12.1989 16.8199 12.3897 16.899 12.5303 17.0396C12.671 17.1803 12.75 17.371 12.75 17.5699V21.1999C12.7569 21.3026 12.7425 21.4055 12.7079 21.5023C12.6733 21.5992 12.6192 21.6879 12.5488 21.7629C12.4785 21.8379 12.3935 21.8977 12.299 21.9385C12.2046 21.9793 12.1028 22.0002 12 21.9999Z" fill="black"/>
<path d="M21.24 12.75H17.61C17.4111 12.75 17.2203 12.671 17.0797 12.5303C16.939 12.3897 16.86 12.1989 16.86 12C16.86 11.8011 16.939 11.6103 17.0797 11.4697C17.2203 11.329 17.4111 11.25 17.61 11.25H21.24C21.4389 11.25 21.6297 11.329 21.7703 11.4697C21.911 11.6103 21.99 11.8011 21.99 12C21.99 12.1989 21.911 12.3897 21.7703 12.5303C21.6297 12.671 21.4389 12.75 21.24 12.75Z" fill="black"/>
<path d="M6.38999 12.71H2.75999C2.56108 12.71 2.37032 12.6309 2.22966 12.4903C2.08901 12.3496 2.00999 12.1589 2.00999 11.96C2.00999 11.761 2.08901 11.5703 2.22966 11.4296C2.37032 11.289 2.56108 11.21 2.75999 11.21H6.38999C6.48849 11.21 6.58601 11.2294 6.67701 11.2671C6.768 11.3047 6.85068 11.36 6.92032 11.4296C6.98997 11.4993 7.04521 11.582 7.0829 11.6729C7.12059 11.7639 7.13999 11.8615 7.13999 11.96C7.13999 12.0585 7.12059 12.156 7.0829 12.247C7.04521 12.338 6.98997 12.4206 6.92032 12.4903C6.85068 12.5599 6.768 12.6152 6.67701 12.6529C6.58601 12.6906 6.48849 12.71 6.38999 12.71Z" fill="black"/>
<path d="M13.43 12.74H10.57C10.3711 12.74 10.1803 12.661 10.0397 12.5203C9.89901 12.3797 9.81999 12.1889 9.81999 11.99C9.81999 11.7911 9.89901 11.6003 10.0397 11.4597C10.1803 11.319 10.3711 11.24 10.57 11.24H13.43C13.6289 11.24 13.8197 11.319 13.9603 11.4597C14.101 11.6003 14.18 11.7911 14.18 11.99C14.18 12.1889 14.101 12.3797 13.9603 12.5203C13.8197 12.661 13.6289 12.74 13.43 12.74Z" fill="black"/>
<path d="M12 14.14C11.8011 14.14 11.6103 14.061 11.4697 13.9204C11.329 13.7797 11.25 13.5889 11.25 13.39V10.53C11.25 10.3311 11.329 10.1404 11.4697 9.9997C11.6103 9.85905 11.8011 9.78003 12 9.78003C12.1989 9.78003 12.3897 9.85905 12.5303 9.9997C12.671 10.1404 12.75 10.3311 12.75 10.53V13.39C12.75 13.5889 12.671 13.7797 12.5303 13.9204C12.3897 14.061 12.1989 14.14 12 14.14Z" fill="black"/>
</svg>
