<svg width="24" height="24" viewBox="0 0 24 24" fill="none" xmlns="http://www.w3.org/2000/svg">
<path d="M12 18.46C11.802 18.4557 11.6128 18.3772 11.47 18.24L5.76997 12.53C5.64489 12.3936 5.5755 12.2152 5.5755 12.03C5.5755 11.8449 5.64489 11.6665 5.76997 11.53L14.16 3.00003C14.3005 2.85934 14.4911 2.7802 14.69 2.78003H20.44C20.6372 2.78001 20.8264 2.85766 20.9668 2.99615C21.1072 3.13465 21.1873 3.32285 21.19 3.52003L21.25 9.20003C21.2503 9.40191 21.1713 9.59583 21.03 9.74003L12.52 18.25C12.3803 18.3846 12.1939 18.4599 12 18.46ZM7.34997 12L12 16.64L19.76 8.89003L19.7 4.27003L15 4.25003L7.34997 12Z" fill="black"/>
<path d="M14.79 21.25C14.6915 21.2505 14.5938 21.2313 14.5028 21.1935C14.4118 21.1557 14.3292 21.1002 14.26 21.03L3 9.74005C2.90861 9.59909 2.86719 9.43153 2.88238 9.26423C2.89756 9.09692 2.96848 8.93956 3.08376 8.81737C3.19904 8.69517 3.352 8.61522 3.51814 8.59032C3.68428 8.56542 3.85396 8.59702 4 8.68005L15.32 20C15.4604 20.1407 15.5393 20.3313 15.5393 20.53C15.5393 20.7288 15.4604 20.9194 15.32 21.06C15.2486 21.1252 15.165 21.1756 15.0741 21.2082C14.9831 21.2408 14.8865 21.255 14.79 21.25Z" fill="black"/>
<path d="M6.99999 21.1901C6.89539 21.2008 6.78971 21.1895 6.68979 21.1568C6.58986 21.124 6.49794 21.0706 6.41999 21.0001L2.99999 17.5501C2.92882 17.4775 2.87274 17.3915 2.83498 17.2971C2.79722 17.2027 2.77853 17.1017 2.77999 17.0001C2.77999 16.5901 2.77999 16.5801 6.88999 12.5801C7.0332 12.4408 7.22587 12.3642 7.42559 12.367C7.62532 12.3698 7.81575 12.4519 7.95499 12.5951C8.09422 12.7383 8.17087 12.931 8.16806 13.1307C8.16524 13.3304 8.0832 13.5208 7.93999 13.6601C6.65999 14.9101 5.25999 16.2901 4.56999 17.0001L6.99999 19.3801L10.31 16.0001C10.3789 15.9293 10.4613 15.8731 10.5524 15.8347C10.6434 15.7963 10.7412 15.7765 10.84 15.7765C10.9388 15.7765 11.0366 15.7963 11.1276 15.8347C11.2186 15.8731 11.301 15.9293 11.37 16.0001C11.5104 16.1407 11.5893 16.3313 11.5893 16.5301C11.5893 16.7288 11.5104 16.9195 11.37 17.0601L7.47999 21.0001C7.34578 21.1154 7.17675 21.1823 6.99999 21.1901Z" fill="black"/>
<path d="M12 12.75C11.9014 12.7505 11.8038 12.7313 11.7128 12.6935C11.6218 12.6557 11.5392 12.6001 11.47 12.53C11.3295 12.3894 11.2506 12.1988 11.2506 12C11.2506 11.8013 11.3295 11.6107 11.47 11.47L15.47 7.47003C15.5386 7.39634 15.6214 7.33724 15.7134 7.29625C15.8054 7.25526 15.9048 7.23322 16.0055 7.23144C16.1062 7.22966 16.2062 7.24819 16.2996 7.28591C16.393 7.32363 16.4778 7.37977 16.549 7.45099C16.6202 7.52221 16.6764 7.60705 16.7141 7.70043C16.7518 7.79382 16.7703 7.89385 16.7686 7.99455C16.7668 8.09526 16.7448 8.19457 16.7038 8.28657C16.6628 8.37857 16.6037 8.46137 16.53 8.53003L12.53 12.53C12.4607 12.6001 12.3782 12.6557 12.2872 12.6935C12.1962 12.7313 12.0985 12.7505 12 12.75Z" fill="black"/>
</svg>
