<svg width="24" height="24" viewBox="0 0 24 24" fill="none" xmlns="http://www.w3.org/2000/svg">
<path d="M2 13.177L3.9718 11.3717L4.46475 10.8921M19.2533 10.6681L12.8336 4.6496C12.4417 4.28215 11.8338 4.27561 11.434 4.63455L4.46475 10.8921M19.2533 10.6681L19.3166 19.9578C19.3205 20.5322 18.8559 21 18.2814 21H15.5637C14.992 21 14.5285 20.5365 14.5285 19.9648V16.3184C14.5285 15.7467 14.0651 15.2832 13.4933 15.2832H10.3915C9.8198 15.2832 9.35633 15.7467 9.35633 16.3184V19.9648C9.35633 20.5365 8.89286 21 8.32115 21H5.49994C4.92822 21 4.46475 20.5365 4.46475 19.9648V10.8921M19.2533 10.6681L22 13.177" stroke="black" stroke-width="1.47883" stroke-linecap="round"/>
</svg>
