<svg width="24" height="24" viewBox="0 0 24 24" fill="none" xmlns="http://www.w3.org/2000/svg">
<path d="M11.5833 6.79167C12.8541 6.79167 13.9583 5.80544 13.9583 4.5C13.9583 3.19456 12.8541 2.20833 11.5833 2.20833C10.3125 2.20833 9.20833 3.19456 9.20833 4.5C9.20833 5.80544 10.3125 6.79167 11.5833 6.79167Z" stroke="black" stroke-width="1.58333"/>
<path d="M11.5833 14.2917C12.8541 14.2917 13.9583 13.3054 13.9583 12C13.9583 10.6946 12.8541 9.70833 11.5833 9.70833C10.3125 9.70833 9.20833 10.6946 9.20833 12C9.20833 13.3054 10.3125 14.2917 11.5833 14.2917Z" stroke="black" stroke-width="1.58333"/>
<path d="M11.5833 21.7917C12.8541 21.7917 13.9583 20.8054 13.9583 19.5C13.9583 18.1946 12.8541 17.2083 11.5833 17.2083C10.3125 17.2083 9.20833 18.1946 9.20833 19.5C9.20833 20.8054 10.3125 21.7917 11.5833 21.7917Z" stroke="black" stroke-width="1.58333"/>
</svg>
