<svg width="48" height="40" viewBox="0 0 48 40" fill="none" xmlns="http://www.w3.org/2000/svg">
<path d="M0.9656 29.1312C-0.822426 30.4202 -0.226418 32.8692 3.58804 34.0293C7.5217 35.4472 11.813 35.8339 15.985 35.0605C16.2234 35.0605 16.4618 34.9316 16.581 34.9316V30.5491L12.5282 31.9669C10.9786 32.4825 9.42893 32.6114 7.8793 32.2247C6.68729 31.838 6.92569 31.0647 8.35611 30.4202L16.581 27.3266V22.5573L5.13766 26.811C3.70724 27.3266 2.27682 28.1 0.9656 29.1312ZM28.6204 9.79632V22.2995C33.5077 24.8775 37.3221 22.2995 37.3221 15.5968C37.3221 8.76513 35.0573 5.67156 28.5012 3.22247C25.0444 1.93348 21.4683 0.773394 17.8923 0V37.2518L26.2364 39.9587V8.63623C26.2364 7.21834 26.2364 6.18715 27.19 6.57385C28.5012 6.96055 28.6204 8.37844 28.6204 9.79632ZM44.1166 26.1665C40.6598 24.8775 36.9645 24.3619 33.3885 24.7486C31.4813 24.8775 29.6932 25.3931 28.0244 26.0376L27.6668 26.1665V31.1936L35.4149 28.1C36.9645 27.5844 38.5142 27.4555 40.0638 27.8422C41.2558 28.2289 41.0174 29.0023 39.587 29.6468L27.6668 34.416V39.3142L44.1166 32.7403C45.3087 32.2248 46.3815 31.5803 47.3351 30.5491C48.1695 29.2601 47.8119 27.4555 44.1166 26.1665Z" fill="white"/>
</svg>
