<svg width="262" height="48" viewBox="0 0 262 48" fill="none" xmlns="http://www.w3.org/2000/svg">
<path fill-rule="evenodd" clip-rule="evenodd" d="M35.9791 11.8383C35.9791 11.6505 35.7916 11.5003 35.6042 11.5378L31.9683 11.012H31.8559H26.7956C26.4958 8.64587 25.5962 4.66474 23.8719 2.37371C22.9348 1.09674 21.8103 0.458252 20.6109 0.458252C19.8612 0.458252 19.1115 0.721161 18.5118 1.17186C17.9121 0.796276 17.1624 0.646044 16.4502 0.683602C13.0017 1.02162 11.9522 6.09193 11.7273 11.012C8.72863 11.012 5.69247 11.0496 2.6938 11.1247C2.4689 11.1247 2.28148 11.2749 2.28148 11.5003C2.20651 12.8899 1.86916 18.2982 1.41936 26.6361C0.932076 35.4622 0.669693 40.2696 0.594727 41.5466C0.594727 41.7344 0.744658 41.8846 0.932075 41.9222L15.4382 44.1381L29.7943 46.3164C29.9068 46.3164 30.0192 46.3164 30.1317 46.2413L37.216 41.6968C37.4409 41.5841 37.5534 41.3588 37.5159 41.0959L35.9791 11.8383ZM20.6109 1.81034C21.3231 1.8479 21.9978 2.18592 22.4101 2.74928C24.1718 4.66474 25.0339 8.72098 25.4087 11.012H23.2347C22.7474 7.96982 21.5105 4.10137 19.6363 2.07324C19.9362 1.88545 20.311 1.81034 20.6109 1.81034ZM18.6242 2.97463C20.2735 4.66473 21.398 8.19517 21.8478 11.012H16.5627C16.7126 8.42052 17.2374 4.81497 18.6242 2.97463ZM12.402 30.2792L8.46624 31.7064C7.79154 31.9693 7.67909 32.3073 8.24134 32.4951C8.99101 32.6829 9.77816 32.6454 10.5278 32.3825L12.402 31.7064V33.697L12.0272 33.7721C10.078 34.1101 8.05392 33.9223 6.14227 33.2838C4.30558 32.758 3.96823 31.6689 4.83035 31.0304C5.46757 30.6172 6.17975 30.2792 6.92942 30.0163L12.402 28.0633V30.2792ZM16.6376 2.03568C16.9375 1.99812 17.2748 2.03569 17.5372 2.18592C15.813 4.55206 15.3257 8.68342 15.1758 11.012H13.1142C13.3766 5.45345 14.6135 2.22347 16.6376 2.03568ZM16.975 21.7911V35.9505L13.1517 34.7486V17.8476C14.9134 18.2231 16.6751 18.7114 18.3993 19.2747C21.6229 20.4015 22.7099 21.7536 22.7099 24.8709C22.7099 27.9131 20.8358 29.0774 18.4743 27.9131V22.2794C18.4743 21.6033 18.3619 21.0024 17.7246 20.8146C17.2748 20.7019 16.975 21.1151 16.975 21.7911ZM27.5828 31.7064C27.133 32.2698 26.0085 32.6829 26.0085 32.6829L17.6872 35.6875V33.4716L23.8344 31.2933C24.5091 31.0304 24.6216 30.6924 24.0593 30.5046C23.3097 30.3168 22.5225 30.3543 21.7729 30.6172L17.6872 32.0444V29.7534L17.9121 29.6783C18.8491 29.3778 19.7862 29.19 20.7608 29.0774C22.56 28.8896 24.3592 29.1149 26.046 29.7158C27.8452 30.2792 28.0326 31.143 27.5828 31.7064Z" fill="white"/>
<path fill-rule="evenodd" clip-rule="evenodd" d="M195.133 39.0302L194.384 36.8143V39.0302H194.009V36.2885H194.496L195.283 38.6171L196.071 36.2885H196.558V39.0302H196.183V36.8143L195.433 39.0302H195.133ZM192.435 36.5889H191.535V36.2885H193.709V36.5889H192.772V39.0302H192.397L192.435 36.5889ZM247.573 32.1571C247.76 35.3871 249.747 37.4528 252.933 37.4528C254.32 37.4528 255.707 37.1899 257.019 36.7016L257.431 38.542C255.969 39.1053 254.432 39.3682 252.895 39.3307C247.873 39.3307 245.211 35.9505 245.211 31.4811C245.211 26.899 247.835 23.5564 252.071 23.5564C256.306 23.5564 258.368 26.4859 258.368 30.9177V32.082L247.573 32.1571ZM247.573 30.2417H256.119V30.129C256.119 27.237 254.47 25.5469 252.071 25.5469C249.372 25.5469 247.835 27.4624 247.573 30.2417ZM245.249 25.622C244.836 25.5469 244.424 25.5469 243.974 25.5469C241.95 25.5469 240.338 26.7112 240.338 30.2417V39.0678H237.902V24.007H240.263V26.0352H240.301C241.051 24.4202 242.325 23.669 244.274 23.669C244.649 23.669 245.024 23.669 245.361 23.7441L245.249 25.622ZM228.869 39.4058C224.52 39.4058 221.822 36.4011 221.822 31.4811C221.822 26.561 224.52 23.6315 228.869 23.6315C233.217 23.6315 235.915 26.561 235.915 31.4811C235.915 36.4011 233.179 39.4058 228.869 39.4058ZM228.869 25.5469C225.72 25.5469 224.258 27.9882 224.258 31.4811C224.258 34.9739 225.757 37.4903 228.869 37.4903C232.017 37.4903 233.479 35.0115 233.479 31.4811C233.479 27.9506 232.017 25.5469 228.869 25.5469ZM212.301 23.9695H215V20.1762H217.436V23.9695H220.96V25.8849H217.436V34.8988C217.436 36.9645 217.624 37.3401 219.348 37.3401C219.873 37.3401 220.435 37.3025 220.96 37.2274V39.0678C220.21 39.1804 219.423 39.2556 218.673 39.2556C215.524 39.2556 215 37.7532 215 35.0491V25.8849H212.301V23.9695ZM210.052 21.2653C208.627 20.702 207.091 20.4015 205.554 20.4015C203.605 20.4015 201.431 21.1527 201.431 23.5188C201.431 25.3591 202.518 26.3356 205.704 27.575C209.565 29.0774 211.589 30.5797 211.589 33.7721C211.589 37.7908 208.065 39.4058 204.692 39.4058C202.593 39.4058 200.531 38.9551 198.619 38.1288L199.257 35.988C200.981 36.8143 202.855 37.265 204.767 37.3025C207.241 37.3025 209.115 36.2134 209.115 33.9223C209.115 31.8566 207.316 30.7675 204.204 29.5281C200.681 28.1384 198.957 26.3732 198.957 23.669C198.957 19.9132 202.518 18.2983 205.629 18.2983C207.353 18.2607 209.077 18.5612 210.727 19.1621L210.052 21.2653ZM90.4423 23.5188H94.1531C94.1906 23.5188 94.2281 23.5564 94.2281 23.5939L97.6766 33.5843C97.6766 33.6219 97.7141 33.6219 97.7141 33.5843L101.612 23.5564C101.612 23.5188 101.65 23.4812 101.687 23.5188H105.023C105.061 23.5188 105.061 23.5564 105.061 23.5564L95.8399 46.5042C95.8399 46.5418 95.8024 46.5793 95.7649 46.5793H92.6913C92.6538 46.5793 92.6538 46.5793 92.6538 46.5418C92.6538 46.5418 92.6538 46.5418 92.6538 46.5042L95.5775 38.9551C95.5775 38.9175 95.5775 38.88 95.5775 38.8424L90.3298 23.5939C90.3673 23.5564 90.3673 23.5564 90.4423 23.5188C90.4048 23.5188 90.4048 23.5188 90.4423 23.5188ZM168.258 23.5188C174.18 23.5188 174.93 27.6502 174.93 31.2933C174.93 34.9364 174.18 39.0678 168.258 39.0678C162.335 39.0678 161.623 34.8988 161.623 31.2933C161.623 27.6877 162.335 23.5188 168.258 23.5188ZM170.507 35.8002C171.032 34.9739 171.257 33.5467 171.257 31.2933C171.257 28.6267 170.919 27.0868 170.17 26.3732C169.72 25.9601 169.157 25.7723 168.258 25.7723C167.358 25.7723 166.796 25.9601 166.346 26.3732C165.597 27.0868 165.259 28.6267 165.259 31.2933C165.259 33.5467 165.484 34.9739 166.009 35.8002C166.571 36.7016 167.471 36.8143 168.258 36.8143C169.045 36.8143 169.945 36.7016 170.507 35.8002ZM183.626 23.5188C189.249 23.5188 189.998 27.6502 189.998 31.2557V38.9551C189.998 38.9926 189.961 39.0302 189.923 39.0302H186.4C186.362 39.0302 186.325 38.9926 186.325 38.9551C186.325 38.9551 186.325 30.9177 186.325 30.8426C186.325 28.7393 186.1 27.4248 185.65 26.6737C185.125 25.8474 184.338 25.7347 183.626 25.7347H180.927C180.927 25.7347 180.89 25.7347 180.89 25.7723V38.9926C180.89 39.0302 180.852 39.0678 180.815 39.0678H177.291C177.254 39.0678 177.216 39.0302 177.216 38.9926V23.5939C177.216 23.5564 177.216 23.5564 177.254 23.5188H183.626ZM159.187 18.6363C159.224 18.6363 159.262 18.6738 159.262 18.7114V21.6409C159.262 21.6785 159.262 21.6785 159.224 21.716H155.701C155.663 21.716 155.663 21.716 155.626 21.6785V18.7489C155.626 18.7114 155.663 18.6738 155.701 18.6738H159.187V18.6363ZM159.187 23.5188C159.224 23.5188 159.262 23.5564 159.262 23.5564V38.9551C159.262 38.9926 159.224 39.0302 159.187 39.0302H155.663C155.626 39.0302 155.588 38.9926 155.588 38.9551V23.5564C155.588 23.5188 155.626 23.4812 155.663 23.4812H159.187V23.5188ZM153.339 23.5188C153.377 23.5188 153.377 23.5188 153.414 23.5564V25.6596C153.414 25.6972 153.377 25.7347 153.339 25.7347C153.339 25.7347 150.678 25.7347 149.516 25.7347C149.516 25.7347 149.479 25.7347 149.479 25.7723V34.8237C149.479 36.8143 150.416 36.8143 150.791 36.8143H152.365C152.402 36.8143 152.44 36.8519 152.44 36.8894V38.9926C152.44 39.0302 152.402 39.0678 152.365 39.0678H149.816C147.492 39.0678 145.805 37.1148 145.805 34.4106V20.9649C145.805 20.9273 145.843 20.8897 145.88 20.8897H149.404C149.441 20.8897 149.479 20.9273 149.479 20.9649V23.5188C149.479 23.5188 149.479 23.5564 149.516 23.5564L153.339 23.5188ZM128.638 23.5188C128.675 23.5188 128.713 23.5188 128.713 23.5939V25.6972C128.713 25.7347 128.675 25.7723 128.638 25.7723C128.638 25.7723 125.977 25.7723 124.815 25.7723C124.815 25.7723 124.777 25.7723 124.777 25.8098V34.8613C124.777 36.8518 125.714 36.8518 126.089 36.8518H127.626C127.663 36.8518 127.701 36.8894 127.701 36.927V39.0302C127.701 39.0678 127.663 39.1053 127.626 39.1053H125.077C122.753 39.1053 121.066 37.1523 121.066 34.4481V21.0024C121.066 20.9649 121.104 20.9273 121.141 20.9273H124.665C124.702 20.9273 124.74 20.9649 124.74 21.0024V23.5564V23.5939L128.638 23.5188ZM142.844 23.5939V38.9926C142.844 39.0302 142.807 39.0678 142.769 39.0678H139.246C139.208 39.0678 139.171 39.0302 139.171 39.0302V25.8098C139.171 25.8098 139.171 25.7723 139.133 25.7723H136.434C135.722 25.7723 134.935 25.8849 134.41 26.7863C133.961 27.6126 133.736 29.0398 133.736 31.2933V34.6735C133.736 36.5889 134.485 36.8518 135.048 36.8518H137.484C137.521 36.8518 137.559 36.8894 137.559 36.8894V38.9926C137.559 39.0302 137.521 39.0678 137.484 39.0678H134.035C131.712 39.0678 130.025 37.1148 130.025 34.4106V31.2557C130.025 27.6502 130.737 23.5188 136.397 23.5188H142.694C142.844 23.5188 142.882 23.5564 142.844 23.5939ZM113.869 27.1619C115.369 27.2746 116.493 27.7628 117.205 28.7018C118.068 29.7534 118.517 31.2557 118.517 33.1336C118.517 38.3166 115.294 39.1053 113.382 39.1053H107.197C107.16 39.1053 107.122 39.0678 107.122 39.0678V36.9645C107.122 36.927 107.16 36.8894 107.197 36.8894H112.183C114.582 36.8894 114.881 34.8613 114.881 33.7345V33.2463C114.881 31.4435 114.057 30.2792 112.745 30.2041L111.021 30.0539C108.247 29.8661 106.373 27.6502 106.373 24.6455V24.4202C106.373 20.5893 108.734 18.6738 111.995 18.6738H117.318C117.355 18.6738 117.393 18.7114 117.393 18.7489V20.8522C117.393 20.8897 117.355 20.9273 117.355 20.9273H112.557C111.058 20.9273 109.934 21.6033 109.934 24.0822C109.934 26.223 110.908 26.9366 112.22 27.0492L113.869 27.1619ZM88.4557 23.5939V38.9926C88.4557 39.0302 88.4557 39.0302 88.4182 39.0678H84.8947C84.8572 39.0678 84.8198 39.0678 84.8198 39.0302V25.8098C84.8198 25.8098 84.8198 25.7723 84.7823 25.7723H82.0835C81.3713 25.7723 80.5466 25.8849 80.0594 26.7863C79.6096 27.6126 79.3847 29.0398 79.3847 31.2933V34.6735C79.3847 36.5889 80.1343 36.8518 80.6966 36.8518H83.1705C83.208 36.8518 83.2455 36.8894 83.2455 36.927V39.0302C83.2455 39.0678 83.208 39.1053 83.1705 39.1053H79.7595C77.4355 39.1053 75.7488 37.1523 75.7488 34.4481V31.2933C75.7488 27.6877 76.461 23.5564 82.1209 23.5564H88.4182C88.4182 23.5188 88.4557 23.5564 88.4557 23.5939ZM73.0125 18.6738C73.05 18.6738 73.0875 18.7114 73.0875 18.7489V38.9926C73.0875 39.0302 73.05 39.0678 73.05 39.0678H69.5265C69.489 39.0678 69.4516 39.0302 69.4516 39.0302V18.7489C69.4516 18.7114 69.489 18.6738 69.5265 18.6738H73.0125ZM62.3672 18.6738C65.3284 18.6738 67.24 21.1902 67.24 25.0587C67.24 27.0492 66.6778 28.7393 65.6657 29.8661C64.8411 30.8426 63.6416 31.3684 62.3672 31.406H58.9187C58.8812 31.406 58.8438 31.406 58.8438 31.3684V29.2652C58.8438 29.2276 58.8812 29.19 58.9187 29.19H61.3551C62.817 29.19 63.6416 27.7253 63.6416 25.0587C63.6416 22.3921 62.817 20.9273 61.3551 20.9273H57.3069C57.3069 20.9273 57.2694 20.9273 57.2694 20.9649V39.0302C57.2694 39.0678 57.232 39.1053 57.1945 39.1053H53.6336C53.5961 39.1053 53.5586 39.0678 53.5586 39.0302V18.7865C53.5586 18.7489 53.5961 18.7114 53.6336 18.7114L62.3672 18.6738Z" fill="white"/>
</svg>
