<svg width="23" height="23" viewBox="0 0 23 23" fill="none" xmlns="http://www.w3.org/2000/svg">
<path fill-rule="evenodd" clip-rule="evenodd" d="M22.1909 1.66926C22.396 1.15648 22.1466 0.57451 21.6338 0.369397C21.121 0.164283 20.539 0.413699 20.3339 0.926483L19.0015 4.25752C18.5156 3.90806 17.9164 3.69841 17.2546 3.69841H3.53227C1.49137 3.69841 0.0461788 5.6922 0.681169 7.63181L2.64546 13.6318C3.04906 14.8646 4.19934 15.6984 5.49656 15.6984H15.2903C16.5876 15.6984 17.7378 14.8646 18.1414 13.6318L20.1057 7.63181C20.2328 7.2438 20.2765 6.85363 20.249 6.47768C20.2818 6.42601 20.3103 6.37056 20.3339 6.31165L22.1909 1.66926ZM17.2546 5.69841H3.53227C2.85197 5.69841 2.37024 6.36301 2.5819 7.00954L4.54619 13.0095C4.68072 13.4205 5.06415 13.6984 5.49656 13.6984H15.2903C15.7228 13.6984 16.1062 13.4205 16.2407 13.0095L18.205 7.00954C18.4167 6.36301 17.9349 5.69841 17.2546 5.69841ZM7.7053 19.498C7.7053 20.3264 7.03373 20.998 6.2053 20.998C5.37688 20.998 4.7053 20.3264 4.7053 19.498C4.7053 18.6696 5.37688 17.998 6.2053 17.998C7.03373 17.998 7.7053 18.6696 7.7053 19.498ZM9.7053 19.498C9.7053 21.431 8.1383 22.998 6.2053 22.998C4.27231 22.998 2.7053 21.431 2.7053 19.498C2.7053 17.565 4.27231 15.998 6.2053 15.998C8.1383 15.998 9.7053 17.565 9.7053 19.498ZM15.7053 19.498C15.7053 20.3264 15.0337 20.998 14.2053 20.998C13.3769 20.998 12.7053 20.3264 12.7053 19.498C12.7053 18.6696 13.3769 17.998 14.2053 17.998C15.0337 17.998 15.7053 18.6696 15.7053 19.498ZM17.7053 19.498C17.7053 21.431 16.1383 22.998 14.2053 22.998C12.2723 22.998 10.7053 21.431 10.7053 19.498C10.7053 17.565 12.2723 15.998 14.2053 15.998C16.1383 15.998 17.7053 17.565 17.7053 19.498Z" fill="black"/>
</svg>
